<?xml version="1.0" encoding="UTF-8"?>
<!DOCTYPE svg PUBLIC "-//W3C//DTD SVG 1.1//EN" "http://www.w3.org/Graphics/SVG/1.1/DTD/svg11.dtd">
<svg xmlns="http://www.w3.org/2000/svg" version="1.1" width="48px" height="48px" style="shape-rendering:geometricPrecision; text-rendering:geometricPrecision; image-rendering:optimizeQuality; fill-rule:evenodd; clip-rule:evenodd" xmlns:xlink="http://www.w3.org/1999/xlink">
<g><path style="opacity:0.734" fill="#fefffe" d="M 8.5,1.5 C 15.175,1.33375 21.8417,1.50042 28.5,2C 32.6328,5.13108 36.4662,8.63108 40,12.5C 41.6154,22.4002 41.9487,32.4002 41,42.5C 40.1667,43.3333 39.3333,44.1667 38.5,45C 28.5,45.6667 18.5,45.6667 8.5,45C 7.66667,44.1667 6.83333,43.3333 6,42.5C 5.33333,29.8333 5.33333,17.1667 6,4.5C 7.04499,3.62656 7.87833,2.62656 8.5,1.5 Z M 10.5,5.5 C 15.5,5.5 20.5,5.5 25.5,5.5C 23.8333,15.1667 27.8333,19.1667 37.5,17.5C 37.815,25.4197 37.4817,33.253 36.5,41C 27.8333,41.6667 19.1667,41.6667 10.5,41C 9.17647,29.1667 9.17647,17.3334 10.5,5.5 Z M 29.5,9.5 C 30.9616,10.4577 32.2949,11.6244 33.5,13C 30.5096,13.8469 29.1762,12.6802 29.5,9.5 Z"/></g>
<g><path style="opacity:0.65" fill="#fefffe" d="M 21.5,19.5 C 22.8333,19.5 24.1667,19.5 25.5,19.5C 25.5,21.5 25.5,23.5 25.5,25.5C 26.8333,25.5 28.1667,25.5 29.5,25.5C 28.0216,34.1558 24.1883,35.4891 18,29.5C 17.51,28.2068 17.3433,26.8734 17.5,25.5C 18.8333,25.5 20.1667,25.5 21.5,25.5C 21.5,23.5 21.5,21.5 21.5,19.5 Z"/></g>
</svg>
